<?xml version="1.0" standalone="no"?><!DOCTYPE svg PUBLIC "-//W3C//DTD SVG 1.1//EN" "http://www.w3.org/Graphics/SVG/1.1/DTD/svg11.dtd"><svg t="1546184302373" class="icon" style="" viewBox="0 0 1024 1024" version="1.1" xmlns="http://www.w3.org/2000/svg" p-id="13438" xmlns:xlink="http://www.w3.org/1999/xlink" width="200" height="200"><defs><style type="text/css"></style></defs><path d="M512.489502 200.720819A19.95661 19.95661 0 0 0 532.458663 180.739106V60.246369a19.969161 19.969161 0 0 0-39.925771 0v120.492737a19.95661 19.95661 0 0 0 19.95661 19.981713zM573.890593 199.428032l17.722473 1.091966q5.271557 0.326334 10.505461 0.326334A171.174995 171.174995 0 0 0 773.042496 19.128222l-1.12962-17.709922L754.215505 0.326334a171.187547 171.187547 0 0 0-181.416878 181.379225z m77.127903-120.89438a131.060955 131.060955 0 0 1 81.684035-37.905007 130.998198 130.998198 0 0 1-119.601593 119.589042 131.173917 131.173917 0 0 1 37.917558-81.684035zM884.837164 538.451921C870.942845 446.827235 823.247803 386.467905 820.210382 382.664853c-2.422406-3.049972-4.932671-6.112496-7.455488-9.099712-85.80087-101.540234-186.738641-114.995256-256.298094-108.393259-13.279304 1.255133-26.119311 1.054311-34.352982-0.539707-54.786542-10.668628-114.217074-5.761059-171.764908 14.170448-47.054924 16.316725-75.822565 36.536912-76.086143 36.725182C101.948152 441.630986 138.560373 658.794043 138.949464 660.977974c10.21678 57.083434 37.653981 112.321824 81.395354 164.158804C331.235791 956.411105 509.954134 1016.72023 517.510032 1019.167739l11.296195 3.765398a20.082123 20.082123 0 0 0 21.186639-5.572789s6.589447-7.254667 13.065932-14.434026a47.167886 47.167886 0 0 1 17.082355-12.337954c86.666912-35.143715 156.540148-101.351964 161.133934-105.75748C883.318453 752.866238 897.739928 623.612674 884.837164 538.451921zM713.875541 855.573745l-0.263578 0.251027c-0.66522 0.640118-67.852473 64.865257-148.507299 97.586566A86.604155 86.604155 0 0 0 533.312153 976.079034l-4.204695 4.656542C513.04176 975.238095 351.619146 918.255071 251.032812 799.205736 211.84757 752.841135 187.447791 703.953717 178.486143 653.924128c-0.087859-0.489502-8.459594-50.945836 3.489269-115.472207 15.061592-81.056469 53.970705-145.143544 115.911503-190.478936 2.020764-1.393197 99.456714-66.722853 216.548042-43.929644 12.149684 2.359649 28.416204 2.748741 45.812343 1.104517 60.020445-5.698302 147.227064 6.04974 221.8196 94.323221 2.284341 2.711087 4.556132 5.472379 6.752613 8.233671a1.681878 1.681878 0 0 0 0.138065 0.175718c0.439296 0.539707 43.753925 54.598272 56.167188 136.545885 11.459361 75.609193-2.008212 191.0814-131.249225 311.147392z" fill="#171717" p-id="13439"></path></svg>