<?xml version="1.0" standalone="no"?><!DOCTYPE svg PUBLIC "-//W3C//DTD SVG 1.1//EN" "http://www.w3.org/Graphics/SVG/1.1/DTD/svg11.dtd"><svg t="1546183953029" class="icon" style="" viewBox="0 0 1024 1024" version="1.1" xmlns="http://www.w3.org/2000/svg" p-id="10413" xmlns:xlink="http://www.w3.org/1999/xlink" width="200" height="200"><defs><style type="text/css"></style></defs><path d="M825.354697 648.905575c-16.600319-46.551158-42.034064-89.087122-69.011151-134.082392l-6.700355-11.204901-1.869575-3.124323c-6.361573-10.690455-12.622767-21.167602-15.59652-26.224237-9.899963-16.788531-19.712094-38.16944-30.113956-60.79255-9.598824-20.916652-20.477491-44.618846-32.410146-66.137777-19.837569-35.760323-39.210881-58.559098-60.955667-71.771597-29.49913-17.917804-62.047298-17.428452-96.741086 1.468055-34.743977-18.896508-67.317241-19.360765-96.841466-1.39277-21.682049 13.237593-41.055361 36.086558-60.905477 71.922166-11.869918 21.431099-22.710942 45.04546-32.284671 65.899375-10.426957 22.710942-20.276731 44.154589-30.113957 60.830193-2.798088 4.730401-9.598824 16.136062-16.311726 27.35351l-1.166916 1.957408-6.662713 11.129616c-26.939444 45.04546-52.398285 87.581424-69.01115 134.170224-19.072173 53.46482-22.82387 104.357407-11.506041 155.588776 13.074476 58.973165 45.610097 114.182086 91.596618 155.187257 45.44698 40.540914 99.250582 63.389879 151.473202 64.318392h2.660066c15.54633 0 29.34856-2.434211 42.661438-4.805686 12.346722-2.183262 23.990785-4.253596 36.387698-4.253596 11.769538 0 23.664551 2.057787 36.27477 4.241049 14.442152 2.509496 29.386203 5.018993 45.434432 4.793138 52.235167-0.928514 106.026222-23.840216 151.48575-64.318392 46.049259-41.080456 78.584879-96.201544 91.596618-155.212352 11.455851-51.218821 7.691606-102.086313-11.368019-155.538586z m-27.70484 146.805539c-11.292734 50.854944-39.348903 98.409901-79.149516 133.919274-38.294915 34.154246-82.813381 53.376988-125.474819 54.142385-12.233795 0.213307-24.693444-1.932312-37.880848-4.215954-13.714398-2.371474-27.9056-4.830781-43.113148-4.830781-15.910207 0-29.875554 2.509496-43.376645 4.868423-12.798432 2.271094-24.906752 4.416714-37.642446 4.178312-42.661439-0.752849-87.179904-19.988139-125.474819-54.129837-39.788065-35.484279-67.894425-83.039235-79.149516-133.89418C204.793883 698.066609 252.085343 619.017473 302.162343 535.325769q3.350178-5.571082 6.687808-11.179806l1.179463-1.969955c6.712903-11.292734 13.55128-22.736037 16.311727-27.504081 10.878667-18.444798 21.155055-40.804411 32.033721-64.494057 9.724298-21.180149 19.762284-43.088053 30.904448-63.176571 26.500282-47.818454 49.098297-64.393677 71.420267-64.393677 10.891214 0 21.732239 3.952457 32.912045 10.150912l8.62012 4.780591a20.075971 20.075971 0 0 0 19.473692 0l8.632668-4.780591c29.160348-16.186252 46.78956-9.398064 57.530205-2.873373 15.320475 9.310232 30.590761 27.930695 46.676632 56.927926 11.192354 20.188898 21.732239 43.15079 31.029923 63.414973 10.841024 23.589266 21.067222 45.886141 32.008627 64.43132 2.998848 5.018993 9.297684 15.64671 15.709447 26.349712l1.869575 3.124323q3.350178 5.633819 6.72545 11.292734c50.089548 83.666609 97.355912 162.678103 75.761696 260.335155zM512.081716 200.659331a19.950496 19.950496 0 0 0 19.950496-19.950496V60.227913a19.950496 19.950496 0 0 0-39.900993 0v120.455827a19.950496 19.950496 0 0 0 19.950497 19.975591zM573.40126 199.36694l17.717044 1.091631c3.500747 0.213307 7.014042 0.326235 10.502243 0.326235A171.122559 171.122559 0 0 0 772.441966 19.122362l-1.091631-17.704497-17.704497-1.09163A171.135106 171.135106 0 0 0 572.309629 181.662443z m77.104276-120.857346a131.020806 131.020806 0 0 1 81.646465-37.893395 130.932974 130.932974 0 0 1-119.552408 119.552408 131.096091 131.096091 0 0 1 37.905943-81.659013z" fill="#171717" p-id="10414"></path></svg>