<?xml version="1.0" standalone="no"?><!DOCTYPE svg PUBLIC "-//W3C//DTD SVG 1.1//EN" "http://www.w3.org/Graphics/SVG/1.1/DTD/svg11.dtd"><svg t="1546183835440" class="icon" style="" viewBox="0 0 1024 1024" version="1.1" xmlns="http://www.w3.org/2000/svg" p-id="9345" xmlns:xlink="http://www.w3.org/1999/xlink" width="200" height="200"><defs><style type="text/css"></style></defs><path d="M699.1104 291.13344c-37.6576 0-132.4288 55.76704-161.43872 56.70912a44.00128 44.00128 0 0 1-1.17248 0.02048c-37.88288 0-118.1952-56.7296-163.74272-56.7296-152.192 0-222.19776 123.40736-222.19776 275.6352 0 233.44128 194.57024 385.63328 386.72896 385.63328 191.16032 0 387.36896-154.81856 387.36896-385.73568-0.00512-152.17152-88.41728-275.5328-225.54624-275.5328z m-161.82784 598.2976c-155.70944 0-323.76832-123.36128-323.76832-322.6624 0-63.93856 15.51872-212.6592 159.03232-212.66432 11.27936 0.55296 43.40224 15.50848 62.592 24.448 35.66592 16.60416 69.35552 32.28672 101.35552 32.28672l3.2256-0.05632c24.27904-0.78848 49.77664-11.53536 92.74368-30.46912 20.81792-9.16992 55.4496-24.42752 67.7376-26.19904 110.9504 0.70656 161.4848 110.51008 161.4848 212.55168 0 193.0752-167.74144 322.7648-324.4032 322.7648z" p-id="9346"></path><path d="M546.24256 311.36256a31.488 31.488 0 0 0 31.47776-31.488c0-31.34464 46.5152-135.69024 127.22176-145.53088a31.488 31.488 0 0 0 27.42784-35.07712c-2.08896-17.25952-17.77152-29.45536-35.06176-27.44832-120.43776 14.69952-182.5536 152.50432-182.5536 208.06144a31.488 31.488 0 0 0 31.488 31.48288zM372.22912 405.6576c-74.68544 25.4208-114.46784 113.65376-114.46784 167.57248a31.48288 31.48288 0 1 0 62.96064 0c0-28.34944 25.344-92.12416 71.79776-107.95008a31.488 31.488 0 0 0 19.65568-39.95648 31.47776 31.47776 0 0 0-39.94624-19.66592zM397.9008 236.03712c77.15328 0 139.6992-36.41856 139.6992-81.34656 0-44.928-62.54592-81.34656-139.6992-81.34656S258.2016 109.76256 258.2016 154.68544s62.54592 81.35168 139.6992 81.35168z m0-99.71712c37.07904 0 61.27616 10.7008 72.00256 18.36544-10.7264 7.66976-34.92352 18.37056-72.00256 18.37056s-61.27616-10.7008-72.00256-18.36544c10.7264-7.66976 34.92352-18.37056 72.00256-18.37056z" p-id="9347"></path></svg>