<?xml version="1.0" standalone="no"?><!DOCTYPE svg PUBLIC "-//W3C//DTD SVG 1.1//EN" "http://www.w3.org/Graphics/SVG/1.1/DTD/svg11.dtd"><svg t="1546184107719" class="icon" style="" viewBox="0 0 1024 1024" version="1.1" xmlns="http://www.w3.org/2000/svg" p-id="12104" xmlns:xlink="http://www.w3.org/1999/xlink" width="200" height="200"><defs><style type="text/css"></style></defs><path d="M768.67 201a148.43 148.43 0 0 0-128.34 74 148.6 148.6 0 0 0-110.69-73 108.5 108.5 0 0 1 107.23-92.85v-40c-76.8 0-140.16 58.67-147.6 133.54A148.64 148.64 0 0 0 383.67 275a148.43 148.43 0 0 0-128.34-74C173.54 201 107 267.52 107 349.31c0 80.51 64.47 146.25 144.5 148.29a147.4 147.4 0 0 0-19.64 73.7c0 81.79 66.55 148.33 148.34 148.33h3.1a147.39 147.39 0 0 0-19.63 73.69c0 81.79 66.54 148.33 148.33 148.33s148.33-66.54 148.33-148.33a147.5 147.5 0 0 0-19.63-73.7c80-2 144.5-67.77 144.5-148.28a147.46 147.46 0 0 0-19.63-73.69h3.1c81.79 0 148.33-66.55 148.33-148.34S850.46 201 768.67 201zM512 241a108.29 108.29 0 0 1 66 194.17 148.39 148.39 0 0 0-26.94 15.2A108.33 108.33 0 1 1 512 241zM147 349.31a108.34 108.34 0 1 1 174.34 85.84 148.39 148.39 0 0 0-26.94 15.2 108.31 108.31 0 0 1-147.4-101z m124.86 222a108.2 108.2 0 0 1 42.33-85.84 148.44 148.44 0 0 0 26.94-15.21 108.33 108.33 0 1 1-69.27 101zM512 901.61a108.34 108.34 0 1 1 39.07-209.37 148.39 148.39 0 0 0 26.93 15.2 108.29 108.29 0 0 1-66 194.17z m124.87-222a108 108 0 0 1-39.08-7.29 148.35 148.35 0 0 0-26.93-15.21 108.2 108.2 0 0 1-42.33-85.8v-0.07a108.2 108.2 0 0 1 42.33-85.8 148.35 148.35 0 0 0 26.93-15.21 108.34 108.34 0 1 1 39.08 209.38z m131.8-222A108.34 108.34 0 1 1 877 349.31a108.46 108.46 0 0 1-108.33 108.34z" p-id="12105"></path></svg>