<?xml version="1.0" standalone="no"?><!DOCTYPE svg PUBLIC "-//W3C//DTD SVG 1.1//EN" "http://www.w3.org/Graphics/SVG/1.1/DTD/svg11.dtd"><svg t="1546183686750" class="icon" style="" viewBox="0 0 1569 1024" version="1.1" xmlns="http://www.w3.org/2000/svg" p-id="8297" xmlns:xlink="http://www.w3.org/1999/xlink" width="306.4453125" height="200"><defs><style type="text/css"></style></defs><path d="M1567.18075 443.120004a399.649612 399.649612 0 0 0-30.208063-114.661099C1517.325752 282.472122 1498.812294 239.094136 1518.603163 148.973715l3.490389-16.066587a28.786719 28.786719 0 0 0-12.594189-30.369988l-128.136881-81.916206-25.188379-16.084579a28.786719 28.786719 0 0 0-42.622335 14.573276l-10.039368 28.085043c-27.5273 77.058447-61.909437 145.822721-102.156867 204.367709C1115.463161 376.47875 1003.158976 456.991603 867.573531 491.013906c-126.517628 31.719365-271.08093 20.726437-418.037128-31.77334-86.755973-30.999698-172.720311-75.565136-255.482127-132.47288l-14.393359-9.859452a28.786719 28.786719 0 0 0-33.950336 0.971552l-134.559918 104.351855a28.786719 28.786719 0 0 0-7.286638 37.152858l10.327236 17.901741c14.285409 24.738586 30.28003 55.144558 45.75289 84.560986 18.585425 35.335697 37.782568 71.966796 54.730749 99.404137a693.148199 693.148199 0 0 0 151.723998 173.368012c57.303562 46.994318 123.099205 86.180239 195.551778 116.442277 115.506708 48.235745 244.687107 72.938348 378.851207 72.938348a1119.605442 1119.605442 0 0 0 118.38538-6.333078 832.170058 832.170058 0 0 0 238.120137-61.405669c115.614658-49.189305 211.870248-121.821794 278.313593-210.071078C1546.562263 652.11158 1578.155686 547.309933 1567.18075 443.120004z m-137.438589 268.418158C1369.362019 791.727165 1281.220685 858.026576 1174.96171 903.275699a774.902479 774.902479 0 0 1-221.657733 57.123645c-166.549158 17.703832-328.708342-3.904199-468.953636-62.485171C346.551918 840.394711 235.795018 748.133278 163.828222 631.097275c-15.904662-25.890055-34.670004-61.567594-52.823629-96.075673-14.951102-28.426885-30.38798-57.753354-44.619413-82.761815l98.090743-76.068904c85.928355 58.742897 175.311116 104.909597 265.68342 137.186705 98.342627 35.137788 196.10952 52.859612 289.036646 52.859612A668.787438 668.787438 0 0 0 881.571073 546.950099a601.066683 601.066683 0 0 0 200.409536-91.577748c63.186847-44.439497 119.320948-102.012934 166.837026-171.101059 42.046601-61.171777 77.958032-132.310955 106.816717-211.672339L1461.49751 140.3377c-22.255732 105.791191 2.500846 163.940362 22.435648 210.790746a341.842283 341.842283 0 0 1 25.908047 98.16271c9.499617 89.328786-18.225591 180.042933-80.099044 262.247006z" fill="#e1b12c" p-id="8298"></path></svg>